<svg width="648" height="144" viewBox="0 0 648 144" fill="none" xmlns="http://www.w3.org/2000/svg">
<path d="M29.4072 35.6924C29.4072 34.4163 29.1452 33.3226 28.6211 32.4111C28.097 31.4997 27.1969 30.7819 25.9209 30.2578C25.0322 29.8932 23.9954 29.6768 22.8105 29.6084C21.6257 29.5173 20.2471 29.4717 18.6748 29.4717H13.9238V43.1777H17.957C20.0534 43.1777 21.8079 43.0752 23.2207 42.8701C24.6335 42.665 25.8184 42.1979 26.7754 41.4688C27.6868 40.7624 28.3477 39.9876 28.7578 39.1445C29.1908 38.2786 29.4072 37.1279 29.4072 35.6924ZM49.8809 71H33.8506L19.9736 52.3379H13.9238V71H0.867188V20.1064H22.8789C25.8867 20.1064 28.473 20.2773 30.6377 20.6191C32.8024 20.9609 34.8304 21.7015 36.7217 22.8408C38.6357 23.9801 40.151 25.4613 41.2676 27.2842C42.4069 29.0843 42.9766 31.3516 42.9766 34.0859C42.9766 37.8457 42.0993 40.9105 40.3447 43.2803C38.613 45.6501 36.1292 47.6211 32.8936 49.1934L49.8809 71ZM92.4346 71H55.623V20.1064H92.4346V29.9502H68.6797V38.7344H90.7256V48.5781H68.6797V61.1562H92.4346V71ZM149.617 20.1064L131.058 71H116.36L97.8008 20.1064H111.575L123.88 55.8584L136.185 20.1064H149.617ZM184.446 71H154.642V61.9766H162.981V29.1299H154.642V20.1064H184.446V29.1299H176.106V61.9766H184.446V71ZM241.287 20.1064L222.728 71H208.03L189.471 20.1064H203.245L215.55 55.8584L227.854 20.1064H241.287ZM295.633 71H282.063L278.543 60.7119H259.676L256.155 71H242.928L261.727 20.1064H276.834L295.633 71ZM275.364 51.3809L269.109 33.1289L262.854 51.3809H275.364ZM376.365 45.5703C376.365 53.6823 374.041 60.1309 369.393 64.916C364.744 69.6784 358.318 72.0596 350.115 72.0596C341.935 72.0596 335.521 69.6784 330.872 64.916C326.224 60.1309 323.899 53.6823 323.899 45.5703C323.899 37.39 326.224 30.93 330.872 26.1904C335.521 21.4281 341.935 19.0469 350.115 19.0469C358.273 19.0469 364.687 21.4281 369.358 26.1904C374.03 30.93 376.365 37.39 376.365 45.5703ZM358.968 58.4561C360.244 56.9066 361.189 55.0837 361.805 52.9873C362.42 50.8682 362.728 48.3844 362.728 45.5361C362.728 42.4827 362.374 39.8851 361.668 37.7432C360.962 35.6012 360.039 33.8695 358.899 32.5479C357.737 31.1807 356.393 30.1895 354.866 29.5742C353.362 28.959 351.79 28.6514 350.149 28.6514C348.486 28.6514 346.914 28.9476 345.433 29.54C343.974 30.1325 342.63 31.1123 341.399 32.4795C340.26 33.7555 339.326 35.5215 338.597 37.7773C337.89 40.0104 337.537 42.6081 337.537 45.5703C337.537 48.6009 337.879 51.1872 338.562 53.3291C339.269 55.4482 340.192 57.18 341.331 58.5244C342.47 59.8688 343.803 60.86 345.33 61.498C346.857 62.1361 348.463 62.4551 350.149 62.4551C351.836 62.4551 353.442 62.1361 354.969 61.498C356.495 60.8372 357.828 59.8232 358.968 58.4561ZM447.151 71H410.34V20.1064H447.151V29.9502H423.396V38.7344H445.442V48.5781H423.396V61.1562H447.151V71ZM441.409 0.96582V1.64941L429.378 14.3984H420.97L429.412 0.96582H441.409ZM500.198 36.1709C500.198 38.4495 499.799 40.6826 499.002 42.8701C498.204 45.0348 497.065 46.8577 495.584 48.3389C493.556 50.3441 491.289 51.8594 488.782 52.8848C486.299 53.9102 483.2 54.4229 479.485 54.4229H471.316V71H458.191V20.1064H479.793C483.029 20.1064 485.752 20.3913 487.962 20.9609C490.195 21.5078 492.166 22.3395 493.875 23.4561C495.926 24.8005 497.487 26.5208 498.558 28.6172C499.651 30.7135 500.198 33.2314 500.198 36.1709ZM486.629 36.4785C486.629 35.043 486.242 33.8125 485.467 32.7871C484.692 31.7389 483.792 31.0098 482.767 30.5996C481.399 30.0527 480.066 29.7565 478.768 29.7109C477.469 29.6426 475.737 29.6084 473.572 29.6084H471.316V44.8525H475.076C477.309 44.8525 479.144 44.7158 480.579 44.4424C482.037 44.1689 483.257 43.6221 484.236 42.8018C485.079 42.0726 485.683 41.2067 486.048 40.2041C486.435 39.1787 486.629 37.9368 486.629 36.4785ZM537.044 71H507.239V61.9766H515.579V29.1299H507.239V20.1064H537.044V29.1299H528.704V61.9766H537.044V71ZM570.745 71.9912C566.963 71.9912 563.465 71.4329 560.252 70.3164C557.062 69.1999 554.316 67.5365 552.015 65.3262C549.713 63.1159 547.924 60.3587 546.648 57.0547C545.395 53.7507 544.769 49.9339 544.769 45.6045C544.769 41.5713 545.372 37.9141 546.58 34.6328C547.788 31.3516 549.542 28.5374 551.844 26.1904C554.054 23.9346 556.788 22.1914 560.047 20.9609C563.328 19.7305 566.906 19.1152 570.779 19.1152C572.921 19.1152 574.847 19.2406 576.556 19.4912C578.287 19.7191 579.882 20.0267 581.341 20.4141C582.868 20.847 584.246 21.3369 585.477 21.8838C586.73 22.4079 587.824 22.8978 588.758 23.3535V35.6924H587.254C586.616 35.1455 585.807 34.4961 584.827 33.7441C583.87 32.9922 582.776 32.2516 581.546 31.5225C580.293 30.7933 578.937 30.1781 577.479 29.6768C576.02 29.1755 574.459 28.9248 572.796 28.9248C570.95 28.9248 569.196 29.221 567.532 29.8135C565.869 30.3831 564.331 31.3402 562.918 32.6846C561.574 33.9834 560.48 35.7038 559.637 37.8457C558.816 39.9876 558.406 42.5853 558.406 45.6387C558.406 48.8288 558.851 51.4948 559.739 53.6367C560.651 55.7786 561.79 57.4648 563.157 58.6953C564.547 59.9486 566.097 60.8486 567.806 61.3955C569.515 61.9196 571.201 62.1816 572.864 62.1816C574.459 62.1816 576.032 61.9424 577.581 61.4639C579.153 60.9854 580.6 60.3359 581.922 59.5156C583.038 58.8548 584.075 58.1484 585.032 57.3965C585.989 56.6445 586.775 55.9951 587.391 55.4482H588.758V67.6162C587.482 68.1859 586.263 68.7214 585.101 69.2227C583.938 69.724 582.719 70.1569 581.443 70.5215C579.78 71 578.219 71.3646 576.761 71.6152C575.302 71.8659 573.297 71.9912 570.745 71.9912ZM647.889 45.5703C647.889 53.6823 645.564 60.1309 640.916 64.916C636.268 69.6784 629.842 72.0596 621.639 72.0596C613.458 72.0596 607.044 69.6784 602.396 64.916C597.747 60.1309 595.423 53.6823 595.423 45.5703C595.423 37.39 597.747 30.93 602.396 26.1904C607.044 21.4281 613.458 19.0469 621.639 19.0469C629.796 19.0469 636.211 21.4281 640.882 26.1904C645.553 30.93 647.889 37.39 647.889 45.5703ZM630.491 58.4561C631.767 56.9066 632.713 55.0837 633.328 52.9873C633.943 50.8682 634.251 48.3844 634.251 45.5361C634.251 42.4827 633.898 39.8851 633.191 37.7432C632.485 35.6012 631.562 33.8695 630.423 32.5479C629.261 31.1807 627.916 30.1895 626.39 29.5742C624.886 28.959 623.313 28.6514 621.673 28.6514C620.009 28.6514 618.437 28.9476 616.956 29.54C615.498 30.1325 614.153 31.1123 612.923 32.4795C611.784 33.7555 610.849 35.5215 610.12 37.7773C609.414 40.0104 609.061 42.6081 609.061 45.5703C609.061 48.6009 609.402 51.1872 610.086 53.3291C610.792 55.4482 611.715 57.18 612.854 58.5244C613.994 59.8688 615.327 60.86 616.854 61.498C618.38 62.1361 619.987 62.4551 621.673 62.4551C623.359 62.4551 624.965 62.1361 626.492 61.498C628.019 60.8372 629.352 59.8232 630.491 58.4561Z" fill="#F3C61F"/>
<path d="M136.561 132.116C136.561 134.147 136.097 135.969 135.169 137.58C134.241 139.182 133.069 140.412 131.653 141.271C130.589 141.916 129.422 142.365 128.152 142.619C126.883 142.873 125.379 143 123.641 143H115.95V121.188H123.86C125.638 121.188 127.171 121.34 128.46 121.643C129.749 121.936 130.833 122.355 131.712 122.902C133.216 123.82 134.397 125.061 135.257 126.623C136.126 128.176 136.561 130.007 136.561 132.116ZM130.745 132.072C130.745 130.637 130.481 129.411 129.954 128.396C129.437 127.37 128.611 126.569 127.479 125.993C126.902 125.71 126.312 125.52 125.706 125.422C125.11 125.314 124.207 125.261 122.996 125.261H121.575V138.913H122.996C124.334 138.913 125.315 138.854 125.94 138.737C126.565 138.61 127.176 138.386 127.771 138.063C128.797 137.478 129.549 136.696 130.027 135.72C130.506 134.733 130.745 133.518 130.745 132.072ZM156.629 143H140.853V121.188H156.629V125.407H146.448V129.172H155.896V133.391H146.448V138.781H156.629V143ZM188.519 132.087C188.519 133.923 188.353 135.568 188.021 137.023C187.688 138.469 187.171 139.655 186.468 140.583C185.745 141.53 184.817 142.248 183.685 142.736C182.552 143.215 181.155 143.454 179.495 143.454C177.864 143.454 176.473 143.21 175.32 142.722C174.168 142.233 173.235 141.511 172.522 140.554C171.8 139.597 171.277 138.41 170.955 136.994C170.633 135.568 170.472 133.938 170.472 132.102C170.472 130.207 170.638 128.562 170.97 127.165C171.302 125.769 171.829 124.587 172.552 123.62C173.274 122.663 174.212 121.945 175.364 121.467C176.517 120.988 177.894 120.749 179.495 120.749C181.165 120.749 182.566 120.998 183.699 121.496C184.832 121.984 185.76 122.717 186.482 123.693C187.195 124.65 187.713 125.832 188.035 127.238C188.357 128.635 188.519 130.251 188.519 132.087ZM182.85 132.087C182.85 129.45 182.591 127.575 182.073 126.462C181.556 125.339 180.696 124.777 179.495 124.777C178.294 124.777 177.435 125.339 176.917 126.462C176.399 127.575 176.141 129.46 176.141 132.116C176.141 134.704 176.404 136.569 176.932 137.712C177.459 138.854 178.313 139.426 179.495 139.426C180.677 139.426 181.531 138.854 182.059 137.712C182.586 136.569 182.85 134.694 182.85 132.087ZM208.616 143H194.056V139.191H198.655V127.663H194.056V124.104C194.759 124.104 195.433 124.064 196.077 123.986C196.722 123.898 197.259 123.752 197.688 123.547C198.196 123.303 198.577 122.985 198.831 122.595C199.085 122.204 199.231 121.716 199.271 121.13H204.119V139.191H208.616V143ZM244.681 143H238.865L237.356 138.591H229.271L227.762 143H222.093L230.149 121.188H236.624L244.681 143ZM235.994 134.592L233.313 126.77L230.633 134.592H235.994ZM274.974 132.087C274.974 133.923 274.808 135.568 274.476 137.023C274.144 138.469 273.626 139.655 272.923 140.583C272.2 141.53 271.272 142.248 270.14 142.736C269.007 143.215 267.61 143.454 265.95 143.454C264.319 143.454 262.928 143.21 261.775 142.722C260.623 142.233 259.69 141.511 258.978 140.554C258.255 139.597 257.732 138.41 257.41 136.994C257.088 135.568 256.927 133.938 256.927 132.102C256.927 130.207 257.093 128.562 257.425 127.165C257.757 125.769 258.284 124.587 259.007 123.62C259.729 122.663 260.667 121.945 261.819 121.467C262.972 120.988 264.349 120.749 265.95 120.749C267.62 120.749 269.021 120.998 270.154 121.496C271.287 121.984 272.215 122.717 272.938 123.693C273.65 124.65 274.168 125.832 274.49 127.238C274.812 128.635 274.974 130.251 274.974 132.087ZM269.305 132.087C269.305 129.45 269.046 127.575 268.528 126.462C268.011 125.339 267.151 124.777 265.95 124.777C264.749 124.777 263.89 125.339 263.372 126.462C262.854 127.575 262.596 129.46 262.596 132.116C262.596 134.704 262.859 136.569 263.387 137.712C263.914 138.854 264.769 139.426 265.95 139.426C267.132 139.426 267.986 138.854 268.514 137.712C269.041 136.569 269.305 134.694 269.305 132.087ZM296.756 137.976H293.782V143.059H288.406V137.976H277.845V133.845L288.055 121.188H293.782V133.991H296.756V137.976ZM288.406 133.991V126.11L282.063 133.991H288.406ZM331.59 132.116C331.59 134.147 331.126 135.969 330.198 137.58C329.271 139.182 328.099 140.412 326.683 141.271C325.618 141.916 324.451 142.365 323.182 142.619C321.912 142.873 320.408 143 318.67 143H310.979V121.188H318.89C320.667 121.188 322.2 121.34 323.489 121.643C324.778 121.936 325.862 122.355 326.741 122.902C328.245 123.82 329.427 125.061 330.286 126.623C331.155 128.176 331.59 130.007 331.59 132.116ZM325.774 132.072C325.774 130.637 325.511 129.411 324.983 128.396C324.466 127.37 323.641 126.569 322.508 125.993C321.932 125.71 321.341 125.52 320.735 125.422C320.14 125.314 319.236 125.261 318.025 125.261H316.604V138.913H318.025C319.363 138.913 320.345 138.854 320.97 138.737C321.595 138.61 322.205 138.386 322.801 138.063C323.826 137.478 324.578 136.696 325.057 135.72C325.535 134.733 325.774 133.518 325.774 132.072ZM351.658 143H335.882V121.188H351.658V125.407H341.478V129.172H350.926V133.391H341.478V138.781H351.658V143ZM387.254 132.116C387.254 134.147 386.79 135.969 385.862 137.58C384.935 139.182 383.763 140.412 382.347 141.271C381.282 141.916 380.115 142.365 378.846 142.619C377.576 142.873 376.072 143 374.334 143H366.644V121.188H374.554C376.331 121.188 377.864 121.34 379.153 121.643C380.442 121.936 381.526 122.355 382.405 122.902C383.909 123.82 385.091 125.061 385.95 126.623C386.819 128.176 387.254 130.007 387.254 132.116ZM381.438 132.072C381.438 130.637 381.175 129.411 380.647 128.396C380.13 127.37 379.305 126.569 378.172 125.993C377.596 125.71 377.005 125.52 376.399 125.422C375.804 125.314 374.9 125.261 373.689 125.261H372.269V138.913H373.689C375.027 138.913 376.009 138.854 376.634 138.737C377.259 138.61 377.869 138.386 378.465 138.063C379.49 137.478 380.242 136.696 380.721 135.72C381.199 134.733 381.438 133.518 381.438 132.072ZM407.322 143H391.546V121.188H407.322V125.407H397.142V129.172H406.59V133.391H397.142V138.781H407.322V143ZM428.914 143H410.589V138.913L421.458 125.407H411.116V121.188H428.328V125.349L417.474 138.781H428.914V143ZM448.602 143H432.825V121.188H448.602V125.407H438.421V129.172H447.869V133.391H438.421V138.781H448.602V143ZM476.199 143H470.604V128.396L466.561 137.873H462.679L458.636 128.396V143H453.333V121.188H459.866L464.773 132.131L469.666 121.188H476.199V143ZM500.442 136.32C500.442 137.375 500.228 138.317 499.798 139.147C499.378 139.978 498.797 140.666 498.055 141.213C497.195 141.857 496.248 142.316 495.213 142.59C494.188 142.863 492.884 143 491.302 143H481.78V121.188H490.247C492.005 121.188 493.289 121.247 494.1 121.364C494.92 121.481 495.73 121.74 496.531 122.141C497.361 122.561 497.977 123.127 498.377 123.84C498.787 124.543 498.992 125.349 498.992 126.257C498.992 127.312 498.714 128.244 498.157 129.055C497.601 129.855 496.814 130.48 495.799 130.93V131.047C497.225 131.33 498.353 131.916 499.183 132.805C500.022 133.693 500.442 134.865 500.442 136.32ZM493.235 127.355C493.235 126.994 493.143 126.633 492.957 126.271C492.781 125.91 492.464 125.642 492.005 125.466C491.595 125.31 491.082 125.227 490.467 125.217C489.861 125.197 489.007 125.188 487.903 125.188H487.376V129.802H488.255C489.144 129.802 489.9 129.787 490.525 129.758C491.15 129.729 491.644 129.631 492.005 129.465C492.513 129.24 492.845 128.952 493.001 128.601C493.157 128.239 493.235 127.824 493.235 127.355ZM494.612 136.232C494.612 135.539 494.476 135.007 494.202 134.636C493.938 134.255 493.484 133.972 492.84 133.786C492.4 133.659 491.795 133.591 491.023 133.581C490.252 133.571 489.446 133.566 488.606 133.566H487.376V139.001H487.786C489.368 139.001 490.501 138.996 491.185 138.986C491.868 138.977 492.498 138.85 493.074 138.605C493.66 138.361 494.061 138.039 494.275 137.639C494.5 137.229 494.612 136.76 494.612 136.232ZM516.863 127.868C516.863 127.321 516.751 126.853 516.526 126.462C516.302 126.071 515.916 125.764 515.369 125.539C514.988 125.383 514.544 125.29 514.036 125.261C513.528 125.222 512.938 125.202 512.264 125.202H510.228V131.076H511.956C512.854 131.076 513.606 131.032 514.212 130.944C514.817 130.856 515.325 130.656 515.735 130.344C516.126 130.041 516.409 129.709 516.585 129.348C516.771 128.977 516.863 128.483 516.863 127.868ZM525.638 143H518.768L512.82 135.002H510.228V143H504.632V121.188H514.065C515.354 121.188 516.463 121.262 517.391 121.408C518.318 121.555 519.188 121.872 519.998 122.36C520.818 122.849 521.468 123.483 521.946 124.265C522.435 125.036 522.679 126.008 522.679 127.18C522.679 128.791 522.303 130.104 521.551 131.12C520.809 132.136 519.744 132.98 518.357 133.654L525.638 143ZM549.31 132.102C549.31 135.578 548.313 138.342 546.321 140.393C544.329 142.434 541.575 143.454 538.06 143.454C534.554 143.454 531.805 142.434 529.812 140.393C527.82 138.342 526.824 135.578 526.824 132.102C526.824 128.596 527.82 125.827 529.812 123.796C531.805 121.755 534.554 120.734 538.06 120.734C541.556 120.734 544.305 121.755 546.307 123.796C548.309 125.827 549.31 128.596 549.31 132.102ZM541.854 137.624C542.4 136.96 542.806 136.179 543.069 135.28C543.333 134.372 543.465 133.308 543.465 132.087C543.465 130.778 543.313 129.665 543.011 128.747C542.708 127.829 542.312 127.087 541.824 126.521C541.326 125.935 540.75 125.51 540.096 125.246C539.451 124.982 538.777 124.851 538.074 124.851C537.361 124.851 536.688 124.978 536.053 125.231C535.428 125.485 534.852 125.905 534.324 126.491C533.836 127.038 533.436 127.795 533.123 128.762C532.82 129.719 532.669 130.832 532.669 132.102C532.669 133.4 532.815 134.509 533.108 135.427C533.411 136.335 533.807 137.077 534.295 137.653C534.783 138.229 535.354 138.654 536.009 138.928C536.663 139.201 537.352 139.338 538.074 139.338C538.797 139.338 539.485 139.201 540.14 138.928C540.794 138.645 541.365 138.21 541.854 137.624Z" fill="white"/>
</svg>
